<?xml version="1.0" encoding="UTF-8"?>
<svg id="Capa_2" data-name="Capa 2" xmlns="http://www.w3.org/2000/svg" viewBox="0 0 39.94 43.73">
  <defs>
    <style>
      .cls-1 {
        fill: #fff;
        stroke-width: 0px;
      }
    </style>
  </defs>
  <g id="Capa_1-2" data-name="Capa 1">
    <path class="cls-1" d="m33.77,17.33c.19-2.68.15-8.52-3.17-12.73C28.19,1.55,24.59,0,19.88,0s-8.29,1.55-10.66,4.6c-4.29,5.51-3.05,9.91-2.96,10.39h2.54c-.01-.07-1.21-4.16,2.33-8.7,1.88-2.41,4.82-3.63,8.75-3.63s6.9,1.23,8.81,3.65c2.91,3.69,2.74,9.25,2.56,11.26L0,20.48l5.06,19.21,1.06,4.04,28.32-1.27,5.5-25.71-6.17.58Zm-19.92,18.48c-1.32,0-2.12-.85-2.12-2.21s.8-2.22,2.12-2.22,2.12.85,2.12,2.22-.8,2.21-2.12,2.21Zm16.25-.03c-1.32,0-2.12-.84-2.12-2.21s.8-2.21,2.12-2.21,2.12.84,2.12,2.21-.81,2.21-2.12,2.21Z"/>
  </g>
</svg>