<?xml version="1.0" encoding="UTF-8"?>
<svg id="Capa_2" data-name="Capa 2" xmlns="http://www.w3.org/2000/svg" xmlns:xlink="http://www.w3.org/1999/xlink" viewBox="0 0 658.61 658.61">
  <defs>
    <style>
      .cls-1 {
        fill: #262ec9;
      }

      .cls-1, .cls-2, .cls-3, .cls-4 {
        stroke-width: 0px;
      }

      .cls-2 {
        fill: none;
      }

      .cls-3 {
        fill: #f2f2f2;
      }

      .cls-4 {
        fill: url(#Nueva_muestra_de_motivo_4);
      }
    </style>
    <pattern id="Nueva_muestra_de_motivo_4" data-name="Nueva muestra de motivo 4" x="0" y="0" width="131" height="131" patternTransform="translate(-5446.88 -328.12)" patternUnits="userSpaceOnUse" viewBox="0 0 131 131">
      <g>
        <rect class="cls-2" width="131" height="131"/>
        <rect class="cls-3" width="131" height="131"/>
      </g>
    </pattern>
  </defs>
  <g id="Capa_1-2" data-name="Capa 1">
    <g>
      <g>
        <circle class="cls-1" cx="329.31" cy="329.31" r="319.81"/>
        <path class="cls-4" d="m329.31,649.61c-85.56,0-165.99-33.32-226.49-93.82C42.32,495.3,9,414.86,9,329.31S42.32,163.31,102.82,102.82C163.31,42.32,243.75,9,329.31,9s165.99,33.32,226.49,93.82c60.5,60.5,93.82,140.93,93.82,226.49s-33.32,165.99-93.82,226.49c-60.5,60.5-140.93,93.82-226.49,93.82Zm0-639.61C153.24,10,10,153.24,10,329.31s143.24,319.31,319.31,319.31,319.31-143.24,319.31-319.31S505.37,10,329.31,10Z"/>
      </g>
      <g>
        <circle class="cls-1" cx="329.31" cy="329.31" r="319.81"/>
        <path class="cls-4" d="m329.31,658.61c-87.96,0-170.66-34.25-232.85-96.45C34.25,499.96,0,417.27,0,329.31S34.25,158.65,96.45,96.45C158.65,34.25,241.35,0,329.31,0s170.66,34.25,232.85,96.45c62.2,62.2,96.45,144.89,96.45,232.85s-34.25,170.66-96.45,232.85c-62.2,62.2-144.89,96.45-232.85,96.45Zm0-639.61C158.2,19,19,158.2,19,329.31s139.2,310.31,310.31,310.31,310.31-139.2,310.31-310.31S500.41,19,329.31,19Z"/>
      </g>
    </g>
  </g>
</svg>