<?xml version="1.0" encoding="UTF-8"?>
<svg id="Capa_2" data-name="Capa 2" xmlns="http://www.w3.org/2000/svg" xmlns:xlink="http://www.w3.org/1999/xlink" viewBox="0 0 249.19 460.99">
  <defs>
    <style>
      .cls-1 {
        fill: #262ec9;
      }

      .cls-1, .cls-2, .cls-3, .cls-4, .cls-5, .cls-6, .cls-7 {
        stroke-width: 0px;
      }

      .cls-2 {
        fill: #1b1464;
      }

      .cls-3 {
        fill: none;
      }

      .cls-4 {
        fill: url(#Nueva_muestra_de_motivo_3);
      }

      .cls-5 {
        fill: url(#Nueva_muestra_de_motivo_2);
      }

      .cls-6 {
        fill: #100f49;
      }

      .cls-7 {
        fill: #3430ef;
      }
    </style>
    <pattern id="Nueva_muestra_de_motivo_2" data-name="Nueva muestra de motivo 2" x="0" y="0" width="131" height="131" patternTransform="translate(-1296.23 -4051.99)" patternUnits="userSpaceOnUse" viewBox="0 0 131 131">
      <g>
        <rect class="cls-3" width="131" height="131"/>
        <rect class="cls-2" width="131" height="131"/>
      </g>
    </pattern>
    <pattern id="Nueva_muestra_de_motivo_3" data-name="Nueva muestra de motivo 3" x="0" y="0" width="131" height="131" patternTransform="translate(-1296.23 -4051.99)" patternUnits="userSpaceOnUse" viewBox="0 0 131 131">
      <g>
        <rect class="cls-3" width="131" height="131"/>
        <rect class="cls-1" width="131" height="131"/>
      </g>
    </pattern>
  </defs>
  <g id="Capa_1-2" data-name="Capa 1">
    <g>
      <g>
        <polygon class="cls-6" points="249.19 96.42 230.02 85.01 154.26 69.49 57.05 82.27 0 91.85 57.05 126.08 193.97 122.43 249.19 96.42"/>
        <polygon class="cls-5" points="74.85 8.79 38.34 16.09 0 91.85 57.05 82.27 74.85 8.79"/>
        <polygon class="cls-4" points="193.97 11.53 210.85 20.66 249.19 96.42 230.02 85.01 193.97 11.53"/>
        <polygon class="cls-4" points="143.53 8.79 193.97 11.53 227.78 77.25 153.8 62.19 57.05 77.71 74.85 8.79 143.53 8.79"/>
        <polygon class="cls-7" points="57.05 77.71 153.8 62.19 230.02 77.71 230.02 85.01 154.26 69.49 57.05 82.27 57.05 77.71"/>
        <polygon class="cls-5" points="103.26 49.84 150.77 54.61 182.27 50.08 164.71 5.63 137.75 2.15 104.55 3.43 103.26 49.84"/>
        <polygon class="cls-4" points="105.41 47.69 152.92 52.46 182.27 50.08 166.86 3.49 139.89 0 106.69 1.28 105.41 47.69"/>
      </g>
      <polygon class="cls-4" points="75.64 321.29 58.7 460.99 123.45 447.73 116.78 321.29 75.64 321.29"/>
      <polygon class="cls-4" points="207.47 321.29 224.42 460.99 159.67 447.73 166.33 321.29 207.47 321.29"/>
      <polygon class="cls-6" points="58.7 460.99 30.74 418.89 49.34 329.22 75.64 321.29 58.7 460.99"/>
    </g>
  </g>
</svg>