<?xml version="1.0" encoding="UTF-8"?>
<svg xmlns="http://www.w3.org/2000/svg" xmlns:xlink="http://www.w3.org/1999/xlink" width="317px" height="330px" viewBox="0 0 317 330" version="1.1">
<g id="surface1">
<path style=" stroke:none;fill-rule:nonzero;fill:rgb(76.862745%,70.980392%,0%);fill-opacity:1;" d="M 264.90625 121.695312 L 256.238281 124.707031 L 276.1875 257.761719 L 282.152344 255.6875 "/>
<path style=" stroke:none;fill-rule:nonzero;fill:rgb(40.392157%,22.352941%,0%);fill-opacity:1;" d="M 178.851562 69.015625 L 165.09375 60.847656 L 110.765625 49.75 L 41.039062 58.894531 L 0.121094 65.742188 L 41.039062 90.25 L 139.246094 87.640625 Z M 178.851562 69.015625 "/>
<path style=" stroke:none;fill-rule:nonzero;fill:rgb(76.862745%,70.980392%,0%);fill-opacity:1;" d="M 53.804688 6.289062 L 27.625 11.515625 L 0.121094 65.742188 L 41.039062 58.894531 Z M 53.804688 6.289062 "/>
<path style=" stroke:none;fill-rule:nonzero;fill:rgb(83.921569%,79.607843%,0%);fill-opacity:1;" d="M 139.246094 8.257812 L 151.347656 14.789062 L 178.851562 69.015625 L 165.09375 60.847656 Z M 139.246094 8.257812 "/>
<path style=" stroke:none;fill-rule:nonzero;fill:rgb(91.764706%,89.411765%,0%);fill-opacity:1;" d="M 103.074219 6.289062 L 139.246094 8.257812 L 163.488281 55.308594 L 110.433594 44.523438 L 41.039062 55.621094 L 53.804688 6.289062 Z M 103.074219 6.289062 "/>
<path style=" stroke:none;fill-rule:nonzero;fill:rgb(100%,100%,0%);fill-opacity:1;" d="M 41.039062 55.621094 L 110.433594 44.523438 L 165.09375 55.621094 L 165.09375 60.847656 L 110.765625 49.75 L 41.039062 58.894531 Z M 41.039062 55.621094 "/>
<path style=" stroke:none;fill-rule:nonzero;fill:rgb(83.921569%,79.607843%,0%);fill-opacity:1;" d="M 74.191406 35.675781 L 108.253906 39.089844 L 130.855469 35.851562 L 118.265625 4.023438 L 98.921875 1.53125 L 75.117188 2.457031 Z M 74.191406 35.675781 "/>
<path style=" stroke:none;fill-rule:nonzero;fill:rgb(100%,100%,0%);fill-opacity:1;" d="M 75.726562 34.144531 L 109.804688 37.558594 L 130.855469 35.851562 L 119.800781 2.492188 L 100.457031 0 L 76.652344 0.921875 Z M 75.726562 34.144531 "/>
<path style=" stroke:none;fill-rule:nonzero;fill:rgb(100%,100%,0%);fill-opacity:1;" d="M 54.378906 229.992188 L 42.222656 330 L 88.667969 320.507812 L 83.890625 229.992188 Z M 54.378906 229.992188 "/>
<path style=" stroke:none;fill-rule:nonzero;fill:rgb(100%,100%,0%);fill-opacity:1;" d="M 148.925781 229.992188 L 161.082031 330 L 114.636719 320.507812 L 119.414062 229.992188 Z M 148.925781 229.992188 "/>
<path style=" stroke:none;fill-rule:nonzero;fill:rgb(76.862745%,70.980392%,0%);fill-opacity:1;" d="M 42.222656 330 L 22.167969 299.863281 L 35.507812 235.671875 L 54.378906 229.992188 Z M 42.222656 330 "/>
<path style=" stroke:none;fill-rule:nonzero;fill:rgb(91.764706%,89.411765%,0%);fill-opacity:1;" d="M 264.90625 121.695312 L 282.152344 255.6875 L 290.855469 250.027344 L 282.398438 106.523438 Z M 264.90625 121.695312 "/>
<path style=" stroke:none;fill-rule:nonzero;fill:rgb(76.862745%,70.980392%,0%);fill-opacity:1;" d="M 257.578125 103.769531 L 304.757812 118.960938 L 263.421875 127.058594 L 232.621094 132.914062 Z M 257.578125 103.769531 "/>
<path style=" stroke:none;fill-rule:nonzero;fill:rgb(100%,100%,0%);fill-opacity:1;" d="M 304.757812 118.960938 L 316.878906 109.847656 L 271.847656 95.984375 L 257.578125 103.769531 Z M 304.757812 118.960938 "/>
</g>
</svg>
