<?xml version="1.0" encoding="UTF-8"?>
<svg id="Capa_2" data-name="Capa 2" xmlns="http://www.w3.org/2000/svg" viewBox="0 0 441.64 460.99">
  <defs>
    <style>
      .cls-1 {
        fill: #eae400;
      }

      .cls-1, .cls-2, .cls-3, .cls-4, .cls-5 {
        stroke-width: 0px;
      }

      .cls-2 {
        fill: #ff0;
      }

      .cls-3 {
        fill: #c4b500;
      }

      .cls-4 {
        fill: #673900;
      }

      .cls-5 {
        fill: #d6cb00;
      }
    </style>
  </defs>
  <g id="Capa_1-2" data-name="Capa 1">
    <g>
      <polyline class="cls-3" points="369.17 170.01 357.1 174.22 384.92 360.08 393.24 357.18"/>
      <g>
        <polygon class="cls-4" points="249.19 96.42 230.02 85.01 154.26 69.49 57.05 82.27 0 91.85 57.05 126.08 193.97 122.43 249.19 96.42"/>
        <polygon class="cls-3" points="74.85 8.79 38.34 16.09 0 91.85 57.05 82.27 74.85 8.79"/>
        <polygon class="cls-5" points="193.97 11.53 210.85 20.66 249.19 96.42 230.02 85.01 193.97 11.53"/>
        <polygon class="cls-1" points="143.53 8.79 193.97 11.53 227.78 77.25 153.8 62.19 57.05 77.71 74.85 8.79 143.53 8.79"/>
        <polygon class="cls-2" points="57.05 77.71 153.8 62.19 230.02 77.71 230.02 85.01 154.26 69.49 57.05 82.27 57.05 77.71"/>
        <polygon class="cls-5" points="103.26 49.84 150.77 54.61 182.27 50.08 164.71 5.63 137.75 2.15 104.55 3.43 103.26 49.84"/>
        <polygon class="cls-2" points="105.41 47.69 152.92 52.46 182.27 50.08 166.86 3.49 139.89 0 106.69 1.28 105.41 47.69"/>
      </g>
      <polygon class="cls-2" points="75.64 321.29 58.7 460.99 123.45 447.73 116.78 321.29 75.64 321.29"/>
      <polygon class="cls-2" points="207.47 321.29 224.42 460.99 159.67 447.73 166.33 321.29 207.47 321.29"/>
      <polygon class="cls-3" points="58.7 460.99 30.74 418.89 49.34 329.22 75.64 321.29 58.7 460.99"/>
      <polygon class="cls-1" points="369.17 170.01 393.24 357.18 405.37 349.26 393.57 148.81 369.17 170.01"/>
      <polygon class="cls-3" points="358.97 144.96 424.75 166.17 367.11 177.49 324.18 185.68 358.97 144.96"/>
      <polygon class="cls-2" points="424.75 166.17 441.64 153.46 378.85 134.09 358.97 144.96 424.75 166.17"/>
    </g>
  </g>
</svg>