<?xml version="1.0" encoding="UTF-8"?>
<svg xmlns="http://www.w3.org/2000/svg" xmlns:xlink="http://www.w3.org/1999/xlink" width="156px" height="330px" viewBox="0 0 156 329" version="1.1">
<g id="surface1">
<path style=" stroke:none;fill-rule:nonzero;fill:rgb(54.901961%,0%,0%);fill-opacity:1;" d="M 148.757812 64.132812 L 39.441406 74.324219 L 16.410156 87.960938 L 85.0625 84.324219 Z M 148.757812 64.132812 "/>
<path style=" stroke:none;fill-rule:nonzero;fill:rgb(72.941176%,9.803922%,14.117647%);fill-opacity:1;" d="M 0.0195312 40.691406 L 28.359375 1.886719 L 43.402344 72.011719 L 16.410156 87.960938 Z M 0.0195312 40.691406 "/>
<path style=" stroke:none;fill-rule:nonzero;fill:rgb(92.941176%,0%,0%);fill-opacity:1;" d="M 148.757812 64.132812 L 131.984375 0.738281 L 28.359375 1.886719 L 39.441406 74.324219 Z M 148.757812 64.132812 "/>
<path style=" stroke:none;fill-rule:nonzero;fill:rgb(72.941176%,0%,0%);fill-opacity:1;" d="M 148.9375 63.101562 L 58.929688 79.511719 L 111.945312 51.171875 Z M 148.9375 63.101562 "/>
<path style=" stroke:none;fill-rule:nonzero;fill:rgb(88.627451%,0%,0%);fill-opacity:1;" d="M 55.503906 81.664062 L 110.824219 48.257812 L 111.945312 54.460938 L 62.058594 81.910156 Z M 55.503906 81.664062 "/>
<path style=" stroke:none;fill-rule:nonzero;fill:rgb(100%,0%,0%);fill-opacity:1;" d="M 111.945312 54.460938 L 148.9375 63.101562 L 147.597656 55.695312 L 110.824219 48.257812 Z M 111.945312 54.460938 "/>
<path style=" stroke:none;fill-rule:nonzero;fill:rgb(76.862745%,0%,0%);fill-opacity:1;" d="M 110.824219 48.257812 L 37.953125 73.796875 L 55.503906 81.664062 "/>
<path style=" stroke:none;fill-rule:nonzero;fill:rgb(92.941176%,0%,0%);fill-opacity:1;" d="M 48.382812 237.167969 L 37.296875 328.261719 L 79.667969 319.617188 L 75.308594 237.167969 Z M 48.382812 237.167969 "/>
<path style=" stroke:none;fill-rule:nonzero;fill:rgb(92.941176%,0%,0%);fill-opacity:1;" d="M 144.890625 237.167969 L 155.980469 328.261719 L 113.609375 319.617188 L 117.972656 237.167969 Z M 144.890625 237.167969 "/>
<path style=" stroke:none;fill-rule:nonzero;fill:rgb(72.941176%,9.803922%,14.117647%);fill-opacity:1;" d="M 37.296875 328.261719 L 19 300.808594 L 31.175781 242.339844 L 48.382812 237.167969 Z M 37.296875 328.261719 "/>
</g>
</svg>
