<?xml version="1.0" encoding="UTF-8"?>
<svg id="Capa_2" data-name="Capa 2" xmlns="http://www.w3.org/2000/svg" viewBox="0 0 700 176.04">
  <defs>
    <style>
      .cls-1 {
        fill: #262ec9;
        stroke-width: 0px;
      }
    </style>
  </defs>
  <g id="Capa_1-2" data-name="Capa 1">
    <g>
      <polygon class="cls-1" points="117.02 52.22 77.39 52.22 52.22 79.02 36.13 97.91 34.5 97.91 34.5 0 0 0 0 172.51 34.5 172.51 34.5 130.78 45.92 119.36 80.89 172.51 121.92 172.51 70.39 99.78 117.02 52.22"/>
      <path class="cls-1" d="m537.99,51.99c-4.66-1.75-9.72-2.72-15.16-2.72-4.86,0-9.33.78-13.22,2.14-11.08,3.69-17.88,12.44-21.96,22.35-.39-1.17-.78-2.33-1.56-3.3-2.92-6.41-7.19-11.47-12.44-14.97-1.75-1.36-3.69-2.33-5.83-3.3-4.86-1.94-10.11-2.92-15.94-2.92-5.05,0-9.33.78-13.22,2.14-11.27,3.89-18.08,12.63-22.16,22.74h-1.36v-21.96h-34.6v120.32h34.6v-79.11c0-11.66,10.5-17.49,21.19-17.49h.97c6.41.19,11.08,2.33,14.19,6.03,3.3,3.89,5.05,9.72,5.05,17.3v73.28h34.6v-73.48c0-7.58,1.75-13.41,5.05-17.3,2.72-3.3,6.61-5.25,11.86-5.83.97-.19,2.14-.19,3.3-.19,10.69,0,21.19,5.83,21.19,17.49v79.11h29.54v-77.75c0-22.16-9.33-36.93-24.1-42.57Z"/>
      <path class="cls-1" d="m177.5,50.1c-37.56,0-60.37,24.09-60.37,63.03s22.81,62.92,60.37,62.92,60.37-24.09,60.37-62.92-22.81-63.03-60.37-63.03Z"/>
      <path class="cls-1" d="m322.08,98.6l-19.11-3.03c-9.33-1.4-14.92-3.49-14.92-10.49,0-7.92,6.99-12.13,20.05-12.13,15.62,0,27.04,6.06,34.04,13.76l17.25-19.59c-10.02-11.66-26.57-18.41-50.12-18.41-34.74,0-55.02,15.16-55.02,40.33,0,22.84,17.02,31.94,38.47,35.2l19.35,3.04c9.32,1.4,14.92,3.49,14.92,10.25,0,8.63-8.39,12.82-21.91,12.82-16.09,0-28.67-6.06-38-16.32l-19.34,17.95c9.79,13.99,30.53,22.62,57.11,22.62,35.67,0,55.95-15.85,55.95-40.8,0-22.85-17.02-31.94-38.7-35.2Z"/>
      <ellipse class="cls-1" cx="639.63" cy="112.38" rx="60.37" ry="62.92"/>
    </g>
  </g>
</svg>