<?xml version="1.0" encoding="UTF-8"?>
<svg id="Capa_2" data-name="Capa 2" xmlns="http://www.w3.org/2000/svg" viewBox="0 0 506.35 535.94">
  <defs>
    <style>
      .cls-1 {
        fill: #999;
      }

      .cls-1, .cls-2, .cls-3, .cls-4, .cls-5, .cls-6, .cls-7, .cls-8, .cls-9, .cls-10, .cls-11, .cls-12, .cls-13 {
        stroke-width: 0px;
      }

      .cls-2 {
        fill: #b0b4bb;
      }

      .cls-3 {
        fill: #eae400;
      }

      .cls-4 {
        fill: #90959a;
      }

      .cls-5 {
        fill: #ff0;
      }

      .cls-6 {
        fill: #c4b500;
      }

      .cls-7 {
        fill: #673900;
      }

      .cls-8 {
        fill: gray;
      }

      .cls-9 {
        fill: #b3b3b3;
      }

      .cls-10 {
        fill: #333;
      }

      .cls-11 {
        fill: #ccc;
      }

      .cls-12 {
        fill: #d6cb00;
      }

      .cls-13 {
        fill: #f2f2f2;
      }
    </style>
  </defs>
  <g id="Capa_1-2" data-name="Capa 1">
    <g>
      <polyline class="cls-6" points="71.88 168.64 83.86 172.81 56.26 357.17 48.01 354.3"/>
      <polygon class="cls-9" points="116.51 235.91 108.97 291.07 257.78 385.12 235.16 350.2 116.51 235.91"/>
      <polygon class="cls-1" points="76.82 315.28 108.97 291.07 257.78 385.12 231.98 379.56 76.82 315.28"/>
      <polygon class="cls-13" points="83.17 262.1 76.82 315.28 108.97 291.07 116.51 235.91 83.17 262.1"/>
      <g>
        <polygon class="cls-7" points="190.89 95.64 209.91 84.32 285.06 68.93 381.48 81.6 438.07 91.11 381.48 125.06 245.67 121.44 190.89 95.64"/>
        <polygon class="cls-6" points="363.83 8.72 400.04 15.96 438.07 91.11 381.48 81.6 363.83 8.72"/>
        <polygon class="cls-12" points="245.67 11.44 228.92 20.49 190.89 95.64 209.91 84.32 245.67 11.44"/>
        <polygon class="cls-3" points="295.69 8.72 245.67 11.44 212.13 76.62 285.51 61.69 381.48 77.08 363.83 8.72 295.69 8.72"/>
        <polygon class="cls-5" points="381.48 77.08 285.51 61.69 209.91 77.08 209.91 84.32 285.06 68.93 381.48 81.6 381.48 77.08"/>
        <polygon class="cls-12" points="335.64 49.44 288.52 54.17 257.27 49.67 274.69 5.59 301.44 2.13 334.37 3.4 335.64 49.44"/>
        <polygon class="cls-5" points="333.51 47.31 286.39 52.04 257.27 49.67 272.56 3.46 299.31 0 332.24 1.27 333.51 47.31"/>
      </g>
      <polygon class="cls-8" points="163.37 285.89 364.47 276.89 434.5 318.41 250.91 328.26 163.37 285.89"/>
      <polygon class="cls-13" points="119.85 120.81 163.37 285.89 364.47 276.89 403.48 94.3 119.85 120.81"/>
      <polygon class="cls-9" points="477.02 195.35 403.48 94.3 364.47 276.89 434.5 318.41 477.02 195.35"/>
      <ellipse class="cls-10" cx="314.48" cy="212.39" rx="16" ry="17.37"/>
      <ellipse class="cls-10" cx="205.39" cy="218.79" rx="16" ry="17.37"/>
      <polyline class="cls-8" points="399.78 393.83 354.09 522.1 344.87 535.94 372.95 424.43"/>
      <polyline class="cls-4" points="372.95 424.43 360.38 321.73 385.95 328.26 399.78 393.83"/>
      <polyline class="cls-11" points="223.72 421.5 302.11 533.42 344.87 535.94 372.95 424.43"/>
      <polyline class="cls-13" points="372.95 424.43 360.38 321.73 235.04 324.24 223.72 421.5"/>
      <polygon class="cls-5" points="363.04 318.69 379.84 457.26 315.61 444.11 322.23 318.69 363.04 318.69"/>
      <polygon class="cls-5" points="232.27 318.69 215.47 457.26 279.69 444.11 273.08 318.69 232.27 318.69"/>
      <polygon class="cls-6" points="379.84 457.26 407.58 415.5 389.12 326.56 363.04 318.69 379.84 457.26"/>
      <polygon class="cls-3" points="71.88 168.64 48.01 354.3 35.98 346.43 47.68 147.6 71.88 168.64"/>
      <polygon class="cls-6" points="82 143.78 16.75 164.83 73.93 176.05 116.51 184.18 82 143.78"/>
      <polygon class="cls-5" points="16.75 164.83 0 152.22 62.28 133 82 143.78 16.75 164.83"/>
      <polygon class="cls-8" points="458.45 507.16 416.49 482.28 466.25 440.69 506.35 467.06 458.45 507.16"/>
      <polygon class="cls-2" points="506.35 467.06 466.25 440.69 399.78 341.18 410.18 348.98 506.35 467.06"/>
      <polygon class="cls-13" points="388.27 351.21 416.49 482.28 466.25 440.69 399.78 341.18 388.27 351.21"/>
    </g>
  </g>
</svg>