<?xml version="1.0" encoding="UTF-8"?>
<svg id="Capa_2" data-name="Capa 2" xmlns="http://www.w3.org/2000/svg" viewBox="0 0 426.9 531.66">
  <defs>
    <style>
      .cls-1 {
        fill: #999;
      }

      .cls-1, .cls-2, .cls-3, .cls-4, .cls-5, .cls-6, .cls-7, .cls-8, .cls-9, .cls-10, .cls-11, .cls-12, .cls-13, .cls-14, .cls-15 {
        stroke-width: 0px;
      }

      .cls-2 {
        fill: #ba1924;
      }

      .cls-3 {
        fill: #b0b4bb;
      }

      .cls-4 {
        fill: #e20000;
      }

      .cls-5 {
        fill: #90959a;
      }

      .cls-6 {
        fill: #ed0000;
      }

      .cls-7 {
        fill: #c40000;
      }

      .cls-8 {
        fill: red;
      }

      .cls-9 {
        fill: gray;
      }

      .cls-10 {
        fill: #b3b3b3;
      }

      .cls-11 {
        fill: #333;
      }

      .cls-12 {
        fill: #ccc;
      }

      .cls-13 {
        fill: #ba0000;
      }

      .cls-14 {
        fill: #8c0000;
      }

      .cls-15 {
        fill: #f2f2f2;
      }
    </style>
  </defs>
  <g id="Capa_1-2" data-name="Capa 1">
    <g>
      <g>
        <g>
          <polygon class="cls-14" points="298.77 87.73 148.03 101.83 116.27 120.7 210.94 115.67 298.77 87.73"/>
          <polygon class="cls-2" points="93.67 55.29 132.75 1.59 153.49 98.63 116.27 120.7 93.67 55.29"/>
          <polygon class="cls-6" points="298.77 87.73 275.64 0 132.75 1.59 148.03 101.83 298.77 87.73"/>
        </g>
        <g>
          <polygon class="cls-13" points="299.02 86.3 174.9 109.01 248 69.79 299.02 86.3"/>
          <polygon class="cls-4" points="170.18 111.99 246.46 65.76 248 74.34 179.22 112.33 170.18 111.99"/>
          <polygon class="cls-8" points="248 74.34 299.02 86.3 297.17 76.05 246.46 65.76 248 74.34"/>
          <polyline class="cls-7" points="246.46 65.76 145.98 101.1 170.18 111.99"/>
        </g>
      </g>
      <polygon class="cls-10" points="389.6 249.63 396.69 301.48 256.81 389.89 278.07 357.06 389.6 249.63"/>
      <polygon class="cls-1" points="426.9 324.23 396.69 301.48 256.81 389.89 281.05 384.66 426.9 324.23"/>
      <polygon class="cls-15" points="420.94 274.25 426.9 324.23 396.69 301.48 389.6 249.63 420.94 274.25"/>
      <polygon class="cls-9" points="345.55 296.61 156.52 288.15 90.69 327.18 263.26 336.44 345.55 296.61"/>
      <polygon class="cls-15" points="386.46 141.44 345.55 296.61 156.52 288.15 119.84 116.51 386.46 141.44"/>
      <polygon class="cls-10" points="50.72 211.5 119.84 116.51 156.52 288.15 90.69 327.18 50.72 211.5"/>
      <ellipse class="cls-11" cx="203.5" cy="227.52" rx="15.04" ry="16.33"/>
      <ellipse class="cls-11" cx="306.05" cy="233.54" rx="15.04" ry="16.33"/>
      <polyline class="cls-9" points="123.32 398.08 166.27 518.65 174.94 531.66 148.54 426.84"/>
      <polyline class="cls-5" points="148.54 426.84 160.36 330.3 136.32 336.44 123.32 398.08"/>
      <polyline class="cls-12" points="288.82 424.08 215.13 529.29 174.94 531.66 148.54 426.84"/>
      <polyline class="cls-15" points="148.54 426.84 160.36 330.3 278.18 332.66 288.82 424.08"/>
      <polygon class="cls-6" points="160.36 327.18 145.07 453.24 203.5 441.28 197.49 327.18 160.36 327.18"/>
      <polygon class="cls-6" points="279.32 327.18 294.61 453.24 236.18 441.28 242.2 327.18 279.32 327.18"/>
      <polygon class="cls-2" points="145.07 453.24 119.84 415.25 136.63 334.34 160.36 327.18 145.07 453.24"/>
      <polygon class="cls-9" points="31 254.58 75.77 264.48 43.55 316.22 0 304.45 31 254.58"/>
      <polygon class="cls-3" points="0 304.45 43.55 316.22 132.11 385.57 120.54 381.66 0 304.45"/>
      <polygon class="cls-15" points="139.45 373.24 75.77 264.48 43.55 316.22 132.11 385.57 139.45 373.24"/>
    </g>
  </g>
</svg>