<?xml version="1.0" encoding="UTF-8"?>
<svg id="Capa_2" data-name="Capa 2" xmlns="http://www.w3.org/2000/svg" xmlns:xlink="http://www.w3.org/1999/xlink" viewBox="0 0 1607.18 825.26">
  <defs>
    <style>
      .cls-1 {
        fill: #999;
      }

      .cls-1, .cls-2, .cls-3, .cls-4, .cls-5, .cls-6, .cls-7, .cls-8, .cls-9, .cls-10, .cls-11 {
        stroke-width: 0px;
      }

      .cls-12, .cls-13, .cls-14, .cls-15, .cls-9, .cls-16, .cls-17, .cls-18 {
        fill: #fff;
      }

      .cls-12, .cls-19 {
        letter-spacing: -.01em;
      }

      .cls-20, .cls-21, .cls-22, .cls-19, .cls-23, .cls-24 {
        fill: url(#Nueva_muestra_de_motivo_5);
      }

      .cls-20, .cls-17 {
        letter-spacing: -.01em;
      }

      .cls-2 {
        fill: #b0b4bb;
      }

      .cls-25 {
        stroke-width: 20px;
      }

      .cls-25, .cls-26 {
        stroke: #f2f2f2;
      }

      .cls-25, .cls-26, .cls-27, .cls-28 {
        stroke-miterlimit: 10;
      }

      .cls-25, .cls-27, .cls-28 {
        fill: #262ec9;
      }

      .cls-13, .cls-22 {
        letter-spacing: -.02em;
      }

      .cls-3 {
        fill: #90959a;
      }

      .cls-14 {
        letter-spacing: -.05em;
      }

      .cls-26 {
        stroke-width: 2px;
      }

      .cls-26, .cls-4 {
        fill: none;
      }

      .cls-15 {
        font-family: IBMPlexSans-SemiBoldItalic, 'IBM Plex Sans';
        font-weight: 600;
      }

      .cls-15, .cls-18 {
        font-size: 24px;
      }

      .cls-15, .cls-29 {
        font-style: italic;
      }

      .cls-5 {
        fill: gray;
      }

      .cls-6 {
        fill: #b3b3b3;
      }

      .cls-7 {
        fill: #333;
      }

      .cls-8 {
        fill: #ccc;
      }

      .cls-21 {
        letter-spacing: -.02em;
      }

      .cls-30 {
        letter-spacing: -.02em;
      }

      .cls-16 {
        letter-spacing: -.02em;
      }

      .cls-10 {
        fill: #7ac943;
      }

      .cls-23 {
        letter-spacing: -.04em;
      }

      .cls-31 {
        letter-spacing: -.01em;
      }

      .cls-32 {
        letter-spacing: -.08em;
      }

      .cls-27, .cls-28 {
        stroke: url(#Nueva_muestra_de_motivo_4);
      }

      .cls-24 {
        letter-spacing: -.03em;
      }

      .cls-33 {
        letter-spacing: -.03em;
      }

      .cls-18 {
        font-family: IBMPlexSans-Bold, 'IBM Plex Sans';
        font-weight: 700;
      }

      .cls-34 {
        letter-spacing: -.03em;
      }

      .cls-29 {
        font-family: IBMPlexSans-Italic, 'IBM Plex Sans';
        font-size: 20px;
      }

      .cls-11 {
        fill: #f2f2f2;
      }

      .cls-28 {
        stroke-width: 19px;
      }
    </style>
    <pattern id="Nueva_muestra_de_motivo_5" data-name="Nueva muestra de motivo 5" x="0" y="0" width="131" height="131" patternTransform="translate(-3326.88 -161.46)" patternUnits="userSpaceOnUse" viewBox="0 0 131 131">
      <g>
        <rect class="cls-4" width="131" height="131"/>
        <rect class="cls-10" width="131" height="131"/>
      </g>
    </pattern>
    <pattern id="Nueva_muestra_de_motivo_4" data-name="Nueva muestra de motivo 4" x="0" y="0" width="131" height="131" patternTransform="translate(-3326.88 -161.46)" patternUnits="userSpaceOnUse" viewBox="0 0 131 131">
      <g>
        <rect class="cls-4" width="131" height="131"/>
        <rect class="cls-11" width="131" height="131"/>
      </g>
    </pattern>
  </defs>
  <g id="Capa_1-2" data-name="Capa 1">
    <g>
      <polygon class="cls-25" points="1563.34 786.92 222.16 786.92 222.16 44.79 1596.73 10.27 1563.34 786.92"/>
      <text transform="translate(1000.57 140.39)"><tspan class="cls-18"><tspan class="cls-31" x="0" y="0">INICIA SESIÓN EN TU CUEN</tspan><tspan class="cls-32" x="312.53" y="0">T</tspan><tspan class="cls-31" x="324.69" y="0">A</tspan></tspan><tspan class="cls-15"><tspan class="cls-31" x="-146.42" y="176">US</tspan><tspan class="cls-34" x="-116.9" y="176">U</tspan><tspan class="cls-31" x="-101.56" y="176">ARIO: </tspan></tspan><tspan class="cls-15"><tspan class="cls-30" x="-146.42" y="308">C</tspan><tspan class="cls-31" x="-131.87" y="308">ONTR</tspan><tspan class="cls-33" x="-70.7" y="308">A</tspan><tspan class="cls-31" x="-55.79" y="308">SEÑA: </tspan></tspan><tspan class="cls-29"><tspan class="cls-12" x="-5.46" y="528">¿No t</tspan><tspan class="cls-13" x="38.54" y="528">r</tspan><tspan class="cls-17" x="45.38" y="528">abajas </tspan><tspan class="cls-16" x="109.32" y="528">c</tspan><tspan class="cls-17" x="118.7" y="528">on </tspan><tspan class="cls-14" x="145" y="528">K</tspan><tspan class="cls-17" x="156.26" y="528">osmo? </tspan><tspan class="cls-23" x="217.32" y="528">R</tspan><tspan class="cls-19" x="228.98" y="528">egí</tspan><tspan class="cls-24" x="253.92" y="528">s</tspan><tspan class="cls-19" x="262.76" y="528">t</tspan><tspan class="cls-22" x="268.92" y="528">r</tspan><tspan class="cls-20" x="275.75" y="528">a</tspan><tspan class="cls-21" x="287.18" y="528">t</tspan><tspan class="cls-19" x="293.24" y="528">e aquí</tspan></tspan></text>
      <g>
        <circle class="cls-27" cx="329.31" cy="495.96" r="319.81"/>
        <circle class="cls-28" cx="329.31" cy="495.96" r="319.81"/>
      </g>
      <g>
        <g>
          <polygon class="cls-6" points="664.41 351.34 676.22 437.72 443.17 585.01 478.59 530.32 664.41 351.34"/>
          <polygon class="cls-1" points="726.55 475.63 676.22 437.72 443.17 585.01 483.56 576.31 726.55 475.63"/>
          <polygon class="cls-11" points="716.61 392.35 726.55 475.63 676.22 437.72 664.41 351.34 716.61 392.35"/>
        </g>
        <g>
          <polygon class="cls-5" points="591.02 429.61 276.08 415.51 166.41 480.53 453.92 495.96 591.02 429.61"/>
          <polygon class="cls-11" points="659.17 171.08 591.02 429.61 276.08 415.51 214.98 129.56 659.17 171.08"/>
          <polygon class="cls-6" points="99.82 287.81 214.98 129.56 276.08 415.51 166.41 480.53 99.82 287.81"/>
          <ellipse class="cls-7" cx="354.36" cy="314.51" rx="25.06" ry="27.2"/>
          <ellipse class="cls-7" cx="525.22" cy="324.53" rx="25.06" ry="27.2"/>
        </g>
        <g>
          <polyline class="cls-5" points="220.78 598.65 292.33 799.54 306.78 821.2 262.79 646.57"/>
          <polyline class="cls-3" points="262.79 646.57 282.49 485.73 242.44 495.96 220.78 598.65"/>
          <polyline class="cls-8" points="496.5 641.98 373.74 817.26 306.78 821.2 262.79 646.57"/>
          <polyline class="cls-11" points="262.79 646.57 282.49 485.73 478.78 489.67 496.5 641.98"/>
        </g>
        <g>
          <polygon class="cls-5" points="128.9 776.13 194.61 737.17 116.69 672.04 53.89 713.33 128.9 776.13"/>
          <polygon class="cls-2" points="53.89 713.33 116.69 672.04 220.77 516.2 204.49 528.42 53.89 713.33"/>
          <polygon class="cls-11" points="238.8 531.9 194.61 737.17 116.69 672.04 220.77 516.2 238.8 531.9"/>
        </g>
      </g>
      <line class="cls-26" x1="854.75" y1="376.32" x2="1430.46" y2="376.32"/>
      <line class="cls-26" x1="854.75" y1="515.78" x2="1430.46" y2="515.78"/>
      <path class="cls-9" d="m849.2,338.44l6.28,23.81,1.32,5,35.09-1.57,6.81-31.86-49.49,4.62Zm17.17,18.99c-1.64,0-2.63-1.05-2.63-2.74s1-2.75,2.63-2.75,2.63,1.05,2.63,2.75-1,2.74-2.63,2.74Zm20.14-.03c-1.64,0-2.63-1.05-2.63-2.74s.99-2.74,2.63-2.74,2.63,1.05,2.63,2.74-1,2.74-2.63,2.74Z"/>
      <path class="cls-9" d="m882.97,479.55c.19-2.68.15-8.52-3.17-12.73-2.41-3.05-6.01-4.6-10.72-4.6s-8.29,1.55-10.66,4.6c-4.29,5.51-3.05,9.91-2.96,10.39h2.54c-.01-.07-1.21-4.16,2.33-8.7,1.88-2.41,4.82-3.63,8.75-3.63s6.9,1.23,8.81,3.65c2.91,3.69,2.74,9.25,2.56,11.26l-31.26,2.92,5.06,19.21,1.06,4.04,28.32-1.27,5.5-25.71-6.17.58Zm-19.92,18.48c-1.32,0-2.12-.85-2.12-2.21s.8-2.22,2.12-2.22,2.12.85,2.12,2.22-.8,2.21-2.12,2.21Zm16.25-.03c-1.32,0-2.12-.84-2.12-2.21s.8-2.21,2.12-2.21,2.12.84,2.12,2.21-.81,2.21-2.12,2.21Z"/>
    </g>
  </g>
</svg>