<?xml version="1.0" encoding="UTF-8"?>
<svg id="Capa_2" data-name="Capa 2" xmlns="http://www.w3.org/2000/svg" viewBox="0 0 135.78 34.15">
  <defs>
    <style>
      .cls-1 {
        fill: #f2f2f2;
        stroke-width: 0px;
      }
    </style>
  </defs>
  <g id="Capa_1-2" data-name="Capa 1">
    <g>
      <polygon class="cls-1" points="22.7 10.13 15.01 10.13 10.13 15.33 7.01 18.99 6.69 18.99 6.69 0 0 0 0 33.46 6.69 33.46 6.69 25.37 8.91 23.15 15.69 33.46 23.65 33.46 13.65 19.35 22.7 10.13"/>
      <path class="cls-1" d="m104.36,10.09c-.9-.34-1.89-.53-2.94-.53-.94,0-1.81.15-2.56.41-2.15.72-3.47,2.41-4.26,4.34-.08-.23-.15-.45-.3-.64-.57-1.24-1.4-2.22-2.41-2.9-.34-.26-.72-.45-1.13-.64-.94-.38-1.96-.57-3.09-.57-.98,0-1.81.15-2.56.41-2.19.75-3.51,2.45-4.3,4.41h-.26v-4.26h-6.71v23.34h6.71v-15.35c0-2.26,2.04-3.39,4.11-3.39h.19c1.24.04,2.15.45,2.75,1.17.64.75.98,1.89.98,3.36v14.21h6.71v-14.25c0-1.47.34-2.6.98-3.36.53-.64,1.28-1.02,2.3-1.13.19-.04.41-.04.64-.04,2.07,0,4.11,1.13,4.11,3.39v15.35h5.73v-15.08c0-4.3-1.81-7.16-4.68-8.26Z"/>
      <path class="cls-1" d="m34.43,9.72c-7.29,0-11.71,4.67-11.71,12.23s4.43,12.21,11.71,12.21,11.71-4.67,11.71-12.21-4.43-12.23-11.71-12.23Z"/>
      <path class="cls-1" d="m62.48,19.13l-3.71-.59c-1.81-.27-2.89-.68-2.89-2.03,0-1.54,1.36-2.35,3.89-2.35,3.03,0,5.25,1.18,6.6,2.67l3.35-3.8c-1.94-2.26-5.15-3.57-9.72-3.57-6.74,0-10.67,2.94-10.67,7.82,0,4.43,3.3,6.2,7.46,6.83l3.75.59c1.81.27,2.89.68,2.89,1.99,0,1.67-1.63,2.49-4.25,2.49-3.12,0-5.56-1.17-7.37-3.16l-3.75,3.48c1.9,2.71,5.92,4.39,11.08,4.39,6.92,0,10.85-3.07,10.85-7.91,0-4.43-3.3-6.2-7.51-6.83Z"/>
      <ellipse class="cls-1" cx="124.07" cy="21.8" rx="11.71" ry="12.21"/>
    </g>
  </g>
</svg>