<?xml version="1.0" encoding="UTF-8"?>
<svg id="Capa_2" data-name="Capa 2" xmlns="http://www.w3.org/2000/svg" xmlns:xlink="http://www.w3.org/1999/xlink" viewBox="0 0 1113.36 1038.13">
  <defs>
    <style>
      .cls-1 {
        fill: #262ec9;
      }

      .cls-1, .cls-2, .cls-3, .cls-4 {
        stroke-width: 0px;
      }

      .cls-2 {
        fill: #8cc63f;
      }

      .cls-3 {
        opacity: .7;
      }

      .cls-3, .cls-4 {
        fill: #f2f2f2;
      }

      .cls-5 {
        clip-path: url(#clippath);
      }

      .cls-6 {
        fill: none;
        stroke: #fff;
        stroke-miterlimit: 10;
        stroke-width: 6px;
      }

      .cls-4 {
        opacity: .5;
      }
    </style>
    <clipPath id="clippath">
      <circle class="cls-6" cx="523.39" cy="517.29" r="477"/>
    </clipPath>
  </defs>
  <g id="Capa_1-2" data-name="Capa 1">
    <g>
      <g class="cls-5">
        <circle class="cls-1" cx="523.39" cy="517.29" r="477"/>
        <circle class="cls-1" cx="523.39" cy="517.29" r="477"/>
        <polygon class="cls-2" points="336 242.5 434.2 232.48 442.22 278.57 506.35 314.65 514.37 273.56 494.46 254.52 464.26 232.48 464.26 208.43 558.46 160.33 614.57 28.06 522.38 0 275.88 56.12 229.78 108.22 201.72 188.39 201.72 292.6 225.77 294.61 229.78 226.47 263.85 294.61 261.85 336.69 299.93 356.73 336 342.71 366.06 376.78 408.15 376.78 408.15 412.85 442.22 438.9 398.13 478.99 408.15 503.04 450.23 503.04 448.23 561.16 540.42 683.41 540.42 785.62 512.36 831.71 516.37 921.9 720.79 777.6 845.05 547.13 704.76 429.31 636.62 390.8 576.4 402.83 536.41 374.77 478.84 400.83 438.21 372.77 442.22 336.69 382.11 336.69 402.14 296.61 370.07 288.59 360.05 318.66 325.98 300.62 336 242.5"/>
        <path class="cls-4" d="m843.48,381.63s-129.85-92.75-37.1-143.76c92.75-51.01,129.85,9.28,134.49,37.1,4.64,27.83,27.83,92.75-41.74,139.13-69.56,46.38,329.26-41.74,180.86-213.33-148.4-171.59-278.25-106.66-278.25-106.66,0,0-435.93-102.03-273.61,180.86,162.31,282.89,306.08,315.35,338.54,227.24,32.46-88.11-23.19-120.58-23.19-120.58Z"/>
        <path class="cls-4" d="m245,469.04s38.26,77.4-68.11,91.46c-106.37,14.06-97.22-91.59-51.62-94.87,45.6-3.28,49.55,42.92,49.55,42.92,0,0,16.71-119.02,69.99-97.2,53.28,21.82,55.38,83.38,55.38,83.38,0,0,73.4-214.46-118.52-211.08-191.92,3.38-121.1,156.18-121.1,156.18,0,0-109.94,83.24-33.61,180.34,76.33,97.1,133.15,40.12,133.15,40.12,0,0,87.59,53.01,148.04-53.93,60.45-106.94-63.16-137.32-63.16-137.32Z"/>
        <path class="cls-3" d="m655.94,687.32s56.09,10.91,40.51,81.03c-15.58,70.12-116.86,67-129.33,26.49,0,0-37.4,15.58,0,54.54,37.4,38.95-65.44,87.26-70.12-3.12-4.67-90.37,77.91-74.79,88.82-95.05,10.91-20.26,7.79-73.23-82.58-49.86,0,0,65.01,12.47,37.18,26.49-27.83,14.02-193,38.95-158.72,104.4,34.28,65.44,101.28,88.82,171.4,93.49,70.12,4.67,107.51-82.58,121.54-38.95,14.02,43.63-130.89,118.42-239.96,57.65,0,0,24.93,126.21,244.63,85.7,219.7-40.51,259.46-163.98,247.75-191.66-11.71-27.67-57.65-60.77-101.28-32.72-43.63,28.05-84.14,14.02-68.56-7.79,15.58-21.81-28.97-134.65-101.28-110.63Z"/>
      </g>
      <circle class="cls-6" cx="523.39" cy="517.29" r="477"/>
    </g>
  </g>
</svg>